<svg width="22" height="22" viewBox="0 0 22 22" fill="none" xmlns="http://www.w3.org/2000/svg">
<circle cx="11" cy="11" r="10" stroke="#FBC841" stroke-width="2"/>
<path d="M15.1749 10.9774L12.2281 8.20039C12.0887 8.06901 12.019 7.90179 12.019 7.69874C12.019 7.49569 12.0887 7.32847 12.2281 7.19708C12.3676 7.06569 12.545 7 12.7605 7C12.9759 7 13.1534 7.06569 13.2928 7.19708L16.7909 10.4937C16.8669 10.5653 16.9208 10.643 16.9525 10.7266C16.9842 10.8102 17 10.8998 17 10.9953C17 11.0909 16.9842 11.1805 16.9525 11.2641C16.9208 11.3477 16.8669 11.4253 16.7909 11.497L13.2928 14.7936C13.1407 14.9369 12.9632 15.0056 12.7605 14.9996C12.5577 14.9937 12.3802 14.919 12.2281 14.7757C12.076 14.6324 12 14.4622 12 14.2651C12 14.068 12.076 13.8978 12.2281 13.7545L15.1749 10.9774Z" fill="#FBC841"/>
<path d="M9.75379 13.8009L6.81818 11.0268L9.77273 8.2349C9.92424 8.09172 10 7.9217 10 7.72483C10 7.52796 9.92424 7.35794 9.77273 7.21477C9.62121 7.07159 9.44129 7 9.23295 7C9.02462 7 8.8447 7.07159 8.69318 7.21477L5.20833 10.5078C5.13258 10.5794 5.07891 10.657 5.04735 10.7405C5.01578 10.824 5 10.9135 5 11.0089C5 11.1044 5.01578 11.1939 5.04735 11.2774C5.07891 11.3609 5.13258 11.4385 5.20833 11.5101L8.69318 14.8031C8.83207 14.9344 9.00884 15 9.22348 15C9.43813 15 9.6149 14.9344 9.75379 14.8031C9.89268 14.6719 9.96212 14.5048 9.96212 14.302C9.96212 14.0992 9.89268 13.9321 9.75379 13.8009Z" fill="#FBC841"/>
</svg>
