<svg width="132" height="22" viewBox="0 0 132 22" fill="none" xmlns="http://www.w3.org/2000/svg">
<path d="M37.8281 16.0625C37.2865 16.0625 36.4427 16.0469 35.2969 16.0156C34.724 15.9948 34.2031 15.9792 33.7344 15.9688C33.2656 15.9583 32.8542 15.9583 32.5 15.9688L30.6094 16.0156C30.5781 15.9844 30.5625 15.901 30.5625 15.7656C30.5625 15.6302 30.5781 15.5625 30.6094 15.5625C30.7135 15.5625 30.8385 15.5469 30.9844 15.5156C31.1406 15.4844 31.2865 15.4479 31.4219 15.4062C31.5677 15.3542 31.6562 15.2969 31.6875 15.2344C31.7604 15.1198 31.7969 14.6302 31.7969 13.7656V7.85938C31.7969 7.17188 31.7604 6.69792 31.6875 6.4375C31.6667 6.375 31.5885 6.32292 31.4531 6.28125C31.3177 6.22917 31.1719 6.1875 31.0156 6.15625C30.8594 6.125 30.7344 6.10938 30.6406 6.10938C30.599 6.10938 30.5781 6.04167 30.5781 5.90625C30.5781 5.78125 30.599 5.69792 30.6406 5.65625C30.7344 5.65625 30.8906 5.66667 31.1094 5.6875C31.3385 5.69792 31.5833 5.71354 31.8438 5.73438C32.1042 5.74479 32.3281 5.75 32.5156 5.75C32.849 5.75 33.1823 5.73958 33.5156 5.71875C33.849 5.6875 34.1198 5.66667 34.3281 5.65625C34.349 5.73958 34.3594 5.81771 34.3594 5.89062C34.3594 6.03646 34.3385 6.10938 34.2969 6.10938C34.2344 6.10938 34.125 6.13021 33.9688 6.17188C33.8125 6.20312 33.6667 6.24479 33.5312 6.29688C33.3958 6.33854 33.3177 6.38542 33.2969 6.4375C33.2031 6.79167 33.1562 7.27604 33.1562 7.89062V13.7812C33.1562 14.3333 33.2031 14.7917 33.2969 15.1562C33.3281 15.2604 33.6823 15.3125 34.3594 15.3125H35.1094C36.0677 15.3125 36.724 15.224 37.0781 15.0469C37.2344 14.9635 37.4062 14.7812 37.5938 14.5C37.7917 14.2083 37.9479 13.8646 38.0625 13.4688C38.0833 13.4062 38.1562 13.375 38.2812 13.375C38.4792 13.375 38.6094 13.4062 38.6719 13.4688C38.6406 13.5521 38.5885 13.6823 38.5156 13.8594C38.4531 14.026 38.3906 14.1979 38.3281 14.375C38.2656 14.5521 38.2135 14.7031 38.1719 14.8281C38.1094 15.0156 38.0417 15.2292 37.9688 15.4688C37.8958 15.7083 37.849 15.9062 37.8281 16.0625ZM42.875 16.1094C42.25 16.1094 41.6771 15.9531 41.1562 15.6406C40.6354 15.3281 40.2188 14.9062 39.9062 14.375C39.6042 13.8438 39.4531 13.2604 39.4531 12.625C39.4531 11.9792 39.599 11.3958 39.8906 10.875C40.1927 10.3542 40.599 9.94271 41.1094 9.64062C41.6198 9.32812 42.1979 9.17188 42.8438 9.17188C43.4688 9.17188 44.0365 9.32812 44.5469 9.64062C45.0677 9.95312 45.4792 10.3698 45.7812 10.8906C46.0938 11.4115 46.25 11.9896 46.25 12.625C46.25 13.2604 46.099 13.8438 45.7969 14.375C45.4948 14.9062 45.0885 15.3281 44.5781 15.6406C44.0781 15.9531 43.5104 16.1094 42.875 16.1094ZM43.0156 15.5C43.3906 15.5 43.7188 15.3802 44 15.1406C44.2812 14.901 44.5 14.5781 44.6562 14.1719C44.8229 13.7656 44.9062 13.3229 44.9062 12.8438C44.9062 12.2812 44.8021 11.7708 44.5938 11.3125C44.3854 10.8438 44.1094 10.474 43.7656 10.2031C43.4323 9.92188 43.0677 9.78125 42.6719 9.78125C42.3073 9.78125 41.9792 9.90104 41.6875 10.1406C41.4062 10.3698 41.1875 10.6823 41.0312 11.0781C40.875 11.4635 40.7969 11.901 40.7969 12.3906C40.7969 12.9531 40.8958 13.474 41.0938 13.9531C41.3021 14.4219 41.5729 14.7969 41.9062 15.0781C42.25 15.3594 42.6198 15.5 43.0156 15.5ZM47.4219 16.0469C47.3802 16.0052 47.3594 15.9167 47.3594 15.7812C47.3594 15.6562 47.3802 15.5938 47.4219 15.5938C47.5052 15.5938 47.6198 15.5781 47.7656 15.5469C47.9115 15.5156 48.0469 15.474 48.1719 15.4219C48.2969 15.3698 48.3646 15.3229 48.375 15.2812C48.4167 15.1354 48.4427 14.9688 48.4531 14.7812C48.474 14.5938 48.4844 14.3958 48.4844 14.1875V11.2344C48.4844 10.8385 48.4115 10.5573 48.2656 10.3906C48.1615 10.2656 48.0365 10.1823 47.8906 10.1406C47.7552 10.099 47.6302 10.0781 47.5156 10.0781C47.4115 10.0677 47.3594 10.0521 47.3594 10.0312C47.3594 9.78125 47.3906 9.65104 47.4531 9.64062C48.5885 9.46354 49.2448 9.34896 49.4219 9.29688L49.6875 9.21875C49.7292 9.20833 49.7552 9.25 49.7656 9.34375C49.776 9.4375 49.776 9.50521 49.7656 9.54688L49.6719 10.3281C49.8594 10.0469 50.1146 9.78646 50.4375 9.54688C50.7708 9.29688 51.099 9.17188 51.4219 9.17188C52.026 9.17188 52.4323 9.32292 52.6406 9.625C52.6406 9.98958 52.5833 10.2552 52.4688 10.4219C52.3542 10.5885 52.2135 10.6719 52.0469 10.6719C51.8594 10.6719 51.6875 10.5833 51.5312 10.4062C51.375 10.2292 51.1615 10.1406 50.8906 10.1406C50.6823 10.1406 50.4844 10.2135 50.2969 10.3594C50.1094 10.4948 49.9583 10.6719 49.8438 10.8906C49.7396 11.099 49.6875 11.3177 49.6875 11.5469V13.8906C49.6875 14.1927 49.6979 14.4583 49.7188 14.6875C49.7396 14.9167 49.7708 15.1146 49.8125 15.2812C49.8333 15.3229 49.9062 15.3698 50.0312 15.4219C50.1562 15.474 50.2917 15.5156 50.4375 15.5469C50.5938 15.5781 50.7031 15.5938 50.7656 15.5938C50.7969 15.5938 50.8177 15.6562 50.8281 15.7812C50.8385 15.9062 50.8333 15.9948 50.8125 16.0469L49.125 15.9688L47.4219 16.0469ZM58.2344 16.0938C58.1719 16.0938 58.1406 16.0052 58.1406 15.8281V15.6406C58.1406 15.5885 58.1198 15.5677 58.0781 15.5781C57.5052 15.901 56.9531 16.0625 56.4219 16.0625C55.849 16.0625 55.3281 15.9219 54.8594 15.6406C54.401 15.349 54.0365 14.9688 53.7656 14.5C53.5052 14.0208 53.375 13.5 53.375 12.9375C53.375 12.4375 53.4688 11.9583 53.6562 11.5C53.8542 11.0417 54.1146 10.6354 54.4375 10.2812C54.7708 9.91667 55.1458 9.63542 55.5625 9.4375C55.9792 9.22917 56.4115 9.125 56.8594 9.125C57.3073 9.125 57.6979 9.21354 58.0312 9.39062C58.1042 9.39062 58.1406 9.29688 58.1406 9.10938V7.42188C58.1406 7.06771 58.1094 6.73438 58.0469 6.42188C58.0052 6.25521 57.7396 6.17188 57.25 6.17188H57.1094C57.0469 6.17188 57.0156 6.11458 57.0156 6C57.0156 5.83333 57.0469 5.75 57.1094 5.75C57.6927 5.69792 58.151 5.61979 58.4844 5.51562C58.8281 5.41146 59.0729 5.30729 59.2188 5.20312L59.2812 5.15625H59.3125C59.3542 5.15625 59.3958 5.1875 59.4375 5.25C59.4792 5.30208 59.5052 5.35417 59.5156 5.40625C59.401 5.75 59.3438 6.20312 59.3438 6.76562V13.7969C59.3438 14.2865 59.375 14.6823 59.4375 14.9844C59.4688 15.0885 59.5573 15.1562 59.7031 15.1875C59.8594 15.2083 60.0208 15.2292 60.1875 15.25L60.3281 15.2656C60.3594 15.276 60.375 15.3385 60.375 15.4531C60.375 15.6094 60.3438 15.6875 60.2812 15.6875C59.9375 15.7083 59.5833 15.7656 59.2188 15.8594C58.8542 15.9427 58.5729 16.0104 58.375 16.0625L58.2344 16.0938ZM57.0156 15.2969C57.3698 15.2969 57.6458 15.2188 57.8438 15.0625C58.0417 14.8958 58.1406 14.6771 58.1406 14.4062V10.6875C58.1406 10.4688 58.0208 10.2656 57.7812 10.0781C57.5521 9.88021 57.1771 9.78125 56.6562 9.78125C56.2604 9.78125 55.9167 9.90625 55.625 10.1562C55.3333 10.4062 55.1094 10.7396 54.9531 11.1562C54.7969 11.5625 54.7188 12.0052 54.7188 12.4844C54.7188 12.9844 54.8073 13.4479 54.9844 13.875C55.1719 14.3021 55.4375 14.6458 55.7812 14.9062C56.125 15.1667 56.5365 15.2969 57.0156 15.2969ZM68.125 16.1094C67.5 16.1094 66.9271 15.9531 66.4062 15.6406C65.8854 15.3281 65.4688 14.9062 65.1562 14.375C64.8542 13.8438 64.7031 13.2604 64.7031 12.625C64.7031 11.9792 64.849 11.3958 65.1406 10.875C65.4427 10.3542 65.849 9.94271 66.3594 9.64062C66.8698 9.32812 67.4479 9.17188 68.0938 9.17188C68.7188 9.17188 69.2865 9.32812 69.7969 9.64062C70.3177 9.95312 70.7292 10.3698 71.0312 10.8906C71.3438 11.4115 71.5 11.9896 71.5 12.625C71.5 13.2604 71.349 13.8438 71.0469 14.375C70.7448 14.9062 70.3385 15.3281 69.8281 15.6406C69.3281 15.9531 68.7604 16.1094 68.125 16.1094ZM68.2656 15.5C68.6406 15.5 68.9688 15.3802 69.25 15.1406C69.5312 14.901 69.75 14.5781 69.9062 14.1719C70.0729 13.7656 70.1562 13.3229 70.1562 12.8438C70.1562 12.2812 70.0521 11.7708 69.8438 11.3125C69.6354 10.8438 69.3594 10.474 69.0156 10.2031C68.6823 9.92188 68.3177 9.78125 67.9219 9.78125C67.5573 9.78125 67.2292 9.90104 66.9375 10.1406C66.6562 10.3698 66.4375 10.6823 66.2812 11.0781C66.125 11.4635 66.0469 11.901 66.0469 12.3906C66.0469 12.9531 66.1458 13.474 66.3438 13.9531C66.5521 14.4219 66.8229 14.7969 67.1562 15.0781C67.5 15.3594 67.8698 15.5 68.2656 15.5ZM72.5625 16.0469C72.5312 16.0156 72.5104 15.9323 72.5 15.7969C72.5 15.6615 72.5208 15.5938 72.5625 15.5938C72.6458 15.5938 72.7552 15.5781 72.8906 15.5469C73.026 15.5156 73.151 15.474 73.2656 15.4219C73.3906 15.3698 73.4583 15.3229 73.4688 15.2812C73.5208 15.0729 73.5573 14.8542 73.5781 14.625C73.6094 14.3958 73.625 14.151 73.625 13.8906V10.2969C73.625 10.224 73.599 10.1875 73.5469 10.1875H72.7188C72.6875 10.1875 72.6719 10.1562 72.6719 10.0938C72.6719 10 72.75 9.86979 72.9062 9.70312C73.0729 9.53646 73.2552 9.45312 73.4531 9.45312H73.5469C73.599 9.45312 73.625 9.42188 73.625 9.35938V9.15625C73.625 8.60417 73.7135 8.08854 73.8906 7.60938C74.0677 7.13021 74.3021 6.70312 74.5938 6.32812C74.8958 5.95312 75.2292 5.66146 75.5938 5.45312C75.9688 5.24479 76.349 5.14062 76.7344 5.14062C77.4948 5.14062 77.9896 5.34375 78.2188 5.75C78.2188 6.40625 78.0312 6.73438 77.6562 6.73438C77.5417 6.73438 77.4375 6.6875 77.3438 6.59375C77.25 6.48958 77.151 6.375 77.0469 6.25C76.9531 6.11458 76.8385 6 76.7031 5.90625C76.5781 5.80208 76.4271 5.75 76.25 5.75C75.9479 5.75 75.6875 5.88021 75.4688 6.14062C75.25 6.40104 75.0833 6.74479 74.9688 7.17188C74.8646 7.59896 74.8125 8.06771 74.8125 8.57812V9.375C74.8125 9.42708 74.8385 9.45312 74.8906 9.45312H76.625C76.6771 9.45312 76.7031 9.48958 76.7031 9.5625C76.7031 9.72917 76.6406 9.9375 76.5156 10.1875H74.9062C74.8438 10.1875 74.8125 10.2188 74.8125 10.2812V13.8906C74.8125 14.4531 74.8594 14.9167 74.9531 15.2812C74.974 15.3229 75.0417 15.3698 75.1562 15.4219C75.2708 15.474 75.3958 15.5156 75.5312 15.5469C75.6667 15.5781 75.7656 15.5938 75.8281 15.5938C75.8594 15.5938 75.8802 15.6562 75.8906 15.7812C75.901 15.9062 75.8958 15.9948 75.875 16.0469L74.2031 15.9688L72.5625 16.0469ZM83.4531 16.1094C82.9323 16.1094 82.4948 15.9375 82.1406 15.5938C81.7969 15.25 81.625 14.7604 81.625 14.125V10.1562H80.7188C80.6667 10.1562 80.6406 10.0469 80.6406 9.82812C80.6406 9.76562 80.6458 9.72917 80.6562 9.71875C80.9688 9.57292 81.2969 9.29688 81.6406 8.89062C81.8802 8.60938 82.0573 8.36458 82.1719 8.15625C82.2969 7.94792 82.3594 7.82292 82.3594 7.78125C82.6719 7.78125 82.8281 7.80729 82.8281 7.85938V9.40625L84.0625 9.42188H84.9375C85.0208 9.42188 85.0625 9.46875 85.0625 9.5625C85.0625 9.76042 85.0104 9.95833 84.9062 10.1562H82.8281V13.9844C82.8281 14.401 82.9323 14.7344 83.1406 14.9844C83.3594 15.2344 83.6406 15.3594 83.9844 15.3594C84.3073 15.3594 84.6302 15.2604 84.9531 15.0625C84.9844 15.0417 85.0312 15.0885 85.0938 15.2031C85.1562 15.3073 85.1823 15.3646 85.1719 15.375C85.0156 15.5417 84.776 15.7083 84.4531 15.875C84.1302 16.0312 83.7969 16.1094 83.4531 16.1094ZM85.625 16.0469C85.5833 16.0052 85.5625 15.9167 85.5625 15.7812C85.5625 15.6562 85.5833 15.5938 85.625 15.5938C85.7083 15.5938 85.8229 15.5781 85.9688 15.5469C86.1146 15.5156 86.25 15.474 86.375 15.4219C86.5 15.3698 86.5677 15.3229 86.5781 15.2812C86.651 15 86.6875 14.6406 86.6875 14.2031V7.42188C86.6875 7.06771 86.6562 6.73438 86.5938 6.42188C86.5521 6.25521 86.2865 6.17188 85.7969 6.17188H85.6562C85.5938 6.17188 85.5625 6.11458 85.5625 6C85.5625 5.83333 85.5938 5.75 85.6562 5.75C86.1875 5.69792 86.6354 5.61458 87 5.5C87.3646 5.375 87.6146 5.27604 87.75 5.20312L87.8281 5.15625H87.8594C87.901 5.15625 87.9427 5.1875 87.9844 5.25C88.026 5.30208 88.0521 5.35417 88.0625 5.40625C87.9479 5.75 87.8906 6.20312 87.8906 6.76562V10.1875C87.8906 10.2292 87.901 10.25 87.9219 10.25C87.9323 10.25 87.9479 10.2396 87.9688 10.2188C88.125 10.0521 88.3229 9.89062 88.5625 9.73438C88.8125 9.56771 89.0781 9.43229 89.3594 9.32812C89.6406 9.21354 89.9062 9.15625 90.1562 9.15625C90.8542 9.15625 91.3542 9.40625 91.6562 9.90625C91.9583 10.4062 92.1094 11.1771 92.1094 12.2188V13.9062C92.1094 14.1979 92.1198 14.4583 92.1406 14.6875C92.1615 14.9167 92.1927 15.1146 92.2344 15.2812C92.2552 15.3229 92.3281 15.3698 92.4531 15.4219C92.5781 15.474 92.7135 15.5156 92.8594 15.5469C93.0052 15.5781 93.1094 15.5938 93.1719 15.5938C93.2031 15.5938 93.224 15.6562 93.2344 15.7812C93.2448 15.9062 93.2396 15.9948 93.2188 16.0469L91.5469 15.9688L89.9062 16.0469C89.8646 16.0052 89.8438 15.9167 89.8438 15.7812C89.8438 15.6562 89.8646 15.5938 89.9062 15.5938C89.9896 15.5938 90.099 15.5781 90.2344 15.5469C90.3698 15.5156 90.4948 15.474 90.6094 15.4219C90.724 15.3698 90.7865 15.3229 90.7969 15.2812C90.8385 15.1354 90.8646 14.9688 90.875 14.7812C90.8958 14.5938 90.9062 14.3958 90.9062 14.1875V12.5312C90.9062 11.8854 90.849 11.3906 90.7344 11.0469C90.6198 10.6927 90.4427 10.4479 90.2031 10.3125C89.9635 10.1771 89.6562 10.1094 89.2812 10.1094C89.0729 10.1094 88.8594 10.1719 88.6406 10.2969C88.4323 10.4115 88.2552 10.5469 88.1094 10.7031C87.9635 10.8594 87.8906 11 87.8906 11.125V13.8906C87.8906 14.1927 87.901 14.4583 87.9219 14.6875C87.9427 14.9167 87.974 15.1146 88.0156 15.2812C88.0365 15.3229 88.1094 15.3698 88.2344 15.4219C88.3594 15.474 88.4948 15.5156 88.6406 15.5469C88.7865 15.5781 88.8906 15.5938 88.9531 15.5938C88.9844 15.5938 89.0052 15.6562 89.0156 15.7812C89.026 15.9062 89.0208 15.9948 89 16.0469L87.3281 15.9688L85.625 16.0469ZM97.2969 16.0938C96.724 16.0938 96.1979 15.9427 95.7188 15.6406C95.2396 15.3385 94.8542 14.9375 94.5625 14.4375C94.2812 13.9271 94.1406 13.3594 94.1406 12.7344C94.1406 12.0052 94.276 11.375 94.5469 10.8438C94.8177 10.3125 95.1875 9.90625 95.6562 9.625C96.125 9.33333 96.651 9.1875 97.2344 9.1875C97.7135 9.1875 98.1354 9.28125 98.5 9.46875C98.8646 9.64583 99.1458 9.875 99.3438 10.1562C99.5312 10.4479 99.6667 10.7448 99.75 11.0469C99.8438 11.3385 99.8906 11.6302 99.8906 11.9219C99.8906 12.1302 99.8594 12.2604 99.7969 12.3125C99.7344 12.3542 99.6146 12.375 99.4375 12.375H95.5C95.4167 12.375 95.375 12.401 95.375 12.4531C95.375 12.8906 95.4635 13.3125 95.6406 13.7188C95.8177 14.1146 96.0781 14.4427 96.4219 14.7031C96.7656 14.9635 97.1875 15.0938 97.6875 15.0938C98.125 15.0938 98.4896 15.0312 98.7812 14.9062C99.0833 14.7708 99.3021 14.651 99.4375 14.5469L99.5469 14.4688C99.6094 14.4688 99.6406 14.5365 99.6406 14.6719C99.6406 14.7448 99.6094 14.8385 99.5469 14.9531C99.3385 15.2448 99.0312 15.5104 98.625 15.75C98.2188 15.9792 97.776 16.0938 97.2969 16.0938ZM95.5 11.7188H98.5469C98.599 11.7188 98.625 11.6667 98.625 11.5625C98.625 11.3333 98.5625 11.0833 98.4375 10.8125C98.3229 10.5312 98.1458 10.2865 97.9062 10.0781C97.6667 9.86979 97.3646 9.76562 97 9.76562C96.6667 9.76562 96.3802 9.88021 96.1406 10.1094C95.901 10.3281 95.7188 10.5833 95.5938 10.875C95.4688 11.1562 95.4062 11.401 95.4062 11.6094C95.4062 11.6823 95.4375 11.7188 95.5 11.7188ZM109.312 16.0938C109.25 16.0938 109.219 16.0052 109.219 15.8281V15.6406C109.219 15.5885 109.198 15.5677 109.156 15.5781C108.583 15.901 108.031 16.0625 107.5 16.0625C106.927 16.0625 106.406 15.9219 105.938 15.6406C105.479 15.349 105.115 14.9688 104.844 14.5C104.583 14.0208 104.453 13.5 104.453 12.9375C104.453 12.4375 104.547 11.9583 104.734 11.5C104.932 11.0417 105.193 10.6354 105.516 10.2812C105.849 9.91667 106.224 9.63542 106.641 9.4375C107.057 9.22917 107.49 9.125 107.938 9.125C108.385 9.125 108.776 9.21354 109.109 9.39062C109.182 9.39062 109.219 9.29688 109.219 9.10938V7.42188C109.219 7.06771 109.188 6.73438 109.125 6.42188C109.083 6.25521 108.818 6.17188 108.328 6.17188H108.188C108.125 6.17188 108.094 6.11458 108.094 6C108.094 5.83333 108.125 5.75 108.188 5.75C108.771 5.69792 109.229 5.61979 109.562 5.51562C109.906 5.41146 110.151 5.30729 110.297 5.20312L110.359 5.15625H110.391C110.432 5.15625 110.474 5.1875 110.516 5.25C110.557 5.30208 110.583 5.35417 110.594 5.40625C110.479 5.75 110.422 6.20312 110.422 6.76562V13.7969C110.422 14.2865 110.453 14.6823 110.516 14.9844C110.547 15.0885 110.635 15.1562 110.781 15.1875C110.938 15.2083 111.099 15.2292 111.266 15.25L111.406 15.2656C111.438 15.276 111.453 15.3385 111.453 15.4531C111.453 15.6094 111.422 15.6875 111.359 15.6875C111.016 15.7083 110.661 15.7656 110.297 15.8594C109.932 15.9427 109.651 16.0104 109.453 16.0625L109.312 16.0938ZM108.094 15.2969C108.448 15.2969 108.724 15.2188 108.922 15.0625C109.12 14.8958 109.219 14.6771 109.219 14.4062V10.6875C109.219 10.4688 109.099 10.2656 108.859 10.0781C108.63 9.88021 108.255 9.78125 107.734 9.78125C107.339 9.78125 106.995 9.90625 106.703 10.1562C106.411 10.4062 106.188 10.7396 106.031 11.1562C105.875 11.5625 105.797 12.0052 105.797 12.4844C105.797 12.9844 105.885 13.4479 106.062 13.875C106.25 14.3021 106.516 14.6458 106.859 14.9062C107.203 15.1667 107.615 15.2969 108.094 15.2969ZM115.625 16.1094C115 16.1094 114.427 15.9531 113.906 15.6406C113.385 15.3281 112.969 14.9062 112.656 14.375C112.354 13.8438 112.203 13.2604 112.203 12.625C112.203 11.9792 112.349 11.3958 112.641 10.875C112.943 10.3542 113.349 9.94271 113.859 9.64062C114.37 9.32812 114.948 9.17188 115.594 9.17188C116.219 9.17188 116.786 9.32812 117.297 9.64062C117.818 9.95312 118.229 10.3698 118.531 10.8906C118.844 11.4115 119 11.9896 119 12.625C119 13.2604 118.849 13.8438 118.547 14.375C118.245 14.9062 117.839 15.3281 117.328 15.6406C116.828 15.9531 116.26 16.1094 115.625 16.1094ZM115.766 15.5C116.141 15.5 116.469 15.3802 116.75 15.1406C117.031 14.901 117.25 14.5781 117.406 14.1719C117.573 13.7656 117.656 13.3229 117.656 12.8438C117.656 12.2812 117.552 11.7708 117.344 11.3125C117.135 10.8438 116.859 10.474 116.516 10.2031C116.182 9.92188 115.818 9.78125 115.422 9.78125C115.057 9.78125 114.729 9.90104 114.438 10.1406C114.156 10.3698 113.938 10.6823 113.781 11.0781C113.625 11.4635 113.547 11.901 113.547 12.3906C113.547 12.9531 113.646 13.474 113.844 13.9531C114.052 14.4219 114.323 14.7969 114.656 15.0781C115 15.3594 115.37 15.5 115.766 15.5ZM123.328 16.0938C122.755 16.0938 122.229 15.9427 121.75 15.6406C121.271 15.3385 120.885 14.9375 120.594 14.4375C120.312 13.9271 120.172 13.3594 120.172 12.7344C120.172 12.0885 120.286 11.5 120.516 10.9688C120.755 10.4271 121.099 9.99479 121.547 9.67188C122.005 9.34896 122.557 9.1875 123.203 9.1875C124.349 9.1875 125.141 9.45312 125.578 9.98438C125.578 10.6823 125.385 11.0312 125 11.0312C124.823 11.0312 124.688 10.9948 124.594 10.9219C124.5 10.8385 124.38 10.6927 124.234 10.4844C123.911 10.0052 123.526 9.76562 123.078 9.76562C122.651 9.76562 122.26 9.96875 121.906 10.375C121.562 10.7812 121.391 11.3854 121.391 12.1875C121.391 13.0208 121.594 13.7135 122 14.2656C122.417 14.8177 122.99 15.0938 123.719 15.0938C124.156 15.0938 124.521 15.0312 124.812 14.9062C125.115 14.7708 125.333 14.651 125.469 14.5469L125.578 14.4688C125.641 14.4688 125.672 14.5365 125.672 14.6719C125.672 14.7448 125.641 14.8385 125.578 14.9531C125.37 15.2448 125.062 15.5104 124.656 15.75C124.25 15.9792 123.807 16.0938 123.328 16.0938ZM128.656 16.1719C128.333 16.1719 128.042 16.1354 127.781 16.0625C127.521 15.9896 127.203 15.9271 126.828 15.875C126.786 15.7604 126.745 15.6042 126.703 15.4062C126.661 15.2083 126.625 15 126.594 14.7812C126.573 14.5625 126.562 14.3854 126.562 14.25C126.646 14.1875 126.708 14.1562 126.75 14.1562C126.906 14.1562 126.99 14.1875 127 14.25C127.042 14.4583 127.146 14.6667 127.312 14.875C127.479 15.0833 127.682 15.2604 127.922 15.4062C128.161 15.5417 128.406 15.6094 128.656 15.6094C128.99 15.6094 129.26 15.5208 129.469 15.3438C129.688 15.1562 129.797 14.8906 129.797 14.5469C129.797 14.1823 129.656 13.8802 129.375 13.6406C129.156 13.4635 128.969 13.3385 128.812 13.2656C128.667 13.1823 128.521 13.1094 128.375 13.0469C128.24 12.974 128.068 12.875 127.859 12.75C127.047 12.2812 126.641 11.724 126.641 11.0781C126.641 10.7031 126.745 10.375 126.953 10.0938C127.161 9.80208 127.438 9.57812 127.781 9.42188C128.135 9.25521 128.51 9.17188 128.906 9.17188C129.021 9.17188 129.151 9.18229 129.297 9.20312C129.443 9.21354 129.604 9.22917 129.781 9.25C129.958 9.28125 130.104 9.30729 130.219 9.32812C130.333 9.34896 130.427 9.36458 130.5 9.375C130.615 9.85417 130.677 10.3854 130.688 10.9688C130.688 11.0208 130.62 11.0469 130.484 11.0469C130.339 11.0469 130.26 11.0104 130.25 10.9375C130.198 10.6458 130.047 10.3698 129.797 10.1094C129.557 9.84896 129.281 9.71875 128.969 9.71875C128.219 9.71875 127.844 10.026 127.844 10.6406C127.844 10.7969 127.859 10.9375 127.891 11.0625C127.932 11.1771 128.021 11.2865 128.156 11.3906C128.479 11.6406 128.859 11.8906 129.297 12.1406C129.745 12.3906 130.115 12.625 130.406 12.8438C130.844 13.1771 131.062 13.5677 131.062 14.0156C131.062 14.4219 130.953 14.7917 130.734 15.125C130.516 15.4479 130.224 15.7031 129.859 15.8906C129.495 16.0781 129.094 16.1719 128.656 16.1719Z" fill="white"/>
<circle cx="11" cy="11" r="10" stroke="#FBC841" stroke-width="2"/>
<path d="M15.1749 10.9774L12.2281 8.20039C12.0887 8.06901 12.019 7.90179 12.019 7.69874C12.019 7.49569 12.0887 7.32847 12.2281 7.19708C12.3676 7.06569 12.545 7 12.7605 7C12.9759 7 13.1534 7.06569 13.2928 7.19708L16.7909 10.4937C16.8669 10.5653 16.9208 10.643 16.9525 10.7266C16.9842 10.8102 17 10.8998 17 10.9953C17 11.0909 16.9842 11.1805 16.9525 11.2641C16.9208 11.3477 16.8669 11.4253 16.7909 11.497L13.2928 14.7936C13.1407 14.9369 12.9632 15.0056 12.7605 14.9996C12.5577 14.9937 12.3802 14.919 12.2281 14.7757C12.076 14.6324 12 14.4622 12 14.2651C12 14.068 12.076 13.8978 12.2281 13.7545L15.1749 10.9774Z" fill="#FBC841"/>
<path d="M9.75379 13.8009L6.81818 11.0268L9.77273 8.2349C9.92424 8.09172 10 7.9217 10 7.72483C10 7.52796 9.92424 7.35794 9.77273 7.21477C9.62121 7.07159 9.44129 7 9.23295 7C9.02462 7 8.8447 7.07159 8.69318 7.21477L5.20833 10.5078C5.13258 10.5794 5.07891 10.657 5.04735 10.7405C5.01578 10.824 5 10.9135 5 11.0089C5 11.1044 5.01578 11.1939 5.04735 11.2774C5.07891 11.3609 5.13258 11.4385 5.20833 11.5101L8.69318 14.8031C8.83207 14.9344 9.00884 15 9.22348 15C9.43813 15 9.6149 14.9344 9.75379 14.8031C9.89268 14.6719 9.96212 14.5048 9.96212 14.302C9.96212 14.0992 9.89268 13.9321 9.75379 13.8009Z" fill="#FBC841"/>
</svg>
